# xmcd CD Database Entry
#
# Track frame offsets:
# 150
# 16903
# 33968
# 52958
# 71492
# 93137
# 110011
# 130243
#
# Disc length: 1964 seconds
#
# Revision: 3
# Processed by: cddbd v1.5.2PL0 Copyright (c) Steve Scherf et al.
# Submitted via: tcd 2.0b
#
DISCID=5e07aa08
DTITLE=Various Artist - 1J合唱コンクール侯補曲集
DYEAR=1900
DGENRE=
TTITLE0=走る川
TTITLE1=春に
TTITLE2=神様からの手紙
TTITLE3=二十億光年の孤独
TTITLE4=In Terra PAX
TTITLE5=未来
TTITLE6=聞こえる
TTITLE7=Oh My Soldier
EXTD=
EXTT0=
EXTT1=
EXTT2=
EXTT3=
EXTT4=
EXTT5=
EXTT6=
EXTT7=
PLAYORDER=
